<svg width="146" height="32" viewBox="0 0 146 32" fill="none" xmlns="http://www.w3.org/2000/svg">
<path d="M37.1487 31.9961C37.1487 31.9961 36.5798 31.7755 35.5967 31.3614C35.109 31.133 34.4937 30.955 33.8047 30.6996C33.1236 30.4325 32.3224 30.2196 31.4632 29.9603C31.2503 29.8945 31.0297 29.8287 30.8052 29.7629C30.5769 29.7088 30.3485 29.6546 30.1124 29.6004C29.6441 29.4881 29.1603 29.3682 28.6611 29.2482C28.1618 29.1359 27.6432 29.0585 27.1168 28.9618C26.5904 28.8689 26.0563 28.7528 25.5028 28.6986C24.9533 28.6289 24.3921 28.5515 23.827 28.478C23.2619 28.4161 22.6814 28.389 22.1047 28.3387C21.8144 28.3154 21.5241 28.2922 21.2339 28.269C20.9436 28.2535 20.6494 28.2535 20.3553 28.2458C19.767 28.2303 19.1787 28.2148 18.5865 28.1993C17.9944 28.2148 17.4022 28.2303 16.8101 28.2458C16.512 28.2574 16.214 28.2574 15.9199 28.2729C15.6296 28.2961 15.3393 28.3193 15.0529 28.3425C14.4762 28.3928 13.9034 28.4238 13.3384 28.4819C12.7733 28.5554 12.2121 28.6289 11.6625 28.7025C11.109 28.7567 10.5749 28.8766 10.0486 28.9656C9.5222 29.0663 9.00358 29.1398 8.5043 29.2521C8.00503 29.372 7.52123 29.4881 7.05292 29.6043C6.81683 29.6584 6.58848 29.7126 6.36013 29.7668C6.13565 29.8326 5.91891 29.8984 5.70217 29.9642C4.84296 30.2235 4.04567 30.4364 3.36062 30.7034C2.6717 30.9589 2.05244 31.1408 1.57252 31.3653C0.59332 31.7755 0.0205078 32 0.0205078 32C0.0205078 32 0.543004 31.6633 1.47189 31.0982C1.93246 30.7963 2.52075 30.5177 3.19419 30.1771C3.36449 30.0919 3.53478 30.0068 3.71669 29.9178C3.80571 29.8713 3.89859 29.8287 3.98761 29.7823C4.0805 29.7436 4.17726 29.701 4.27401 29.6623C4.66492 29.5036 5.07131 29.3372 5.49705 29.163C5.70991 29.0779 5.93052 28.9889 6.15113 28.896C6.37561 28.8186 6.60783 28.7412 6.84005 28.6638C7.31224 28.5128 7.79603 28.3541 8.29917 28.1954C8.80232 28.0445 9.32481 27.9284 9.85892 27.7891C10.393 27.6536 10.9387 27.5143 11.4999 27.4291C12.0611 27.3324 12.6301 27.2317 13.2106 27.135C13.7912 27.0498 14.3872 27.0034 14.9833 26.9376C15.2813 26.9066 15.5832 26.8757 15.885 26.8486C16.1831 26.8253 16.4811 26.8253 16.7791 26.8099C17.379 26.7905 17.9828 26.7712 18.5865 26.7479C19.1903 26.7673 19.798 26.7866 20.4017 26.8099C20.7036 26.8215 21.0055 26.8253 21.3035 26.8486C21.6015 26.8795 21.8996 26.9105 22.1976 26.9376C22.7897 26.9995 23.3819 27.0498 23.9625 27.135C24.5391 27.2356 25.1119 27.3324 25.6731 27.433C26.2343 27.5181 26.7801 27.6575 27.3142 27.7968C27.8483 27.9361 28.3708 28.0522 28.8739 28.2032C29.3732 28.3657 29.8609 28.5206 30.333 28.6715C30.5691 28.7489 30.7975 28.8302 31.022 28.9037C31.2426 28.9927 31.4632 29.0818 31.6761 29.1708C32.1018 29.3449 32.512 29.5114 32.8991 29.6701C32.9958 29.7126 33.0926 29.7513 33.1855 29.79C33.2784 29.8365 33.3674 29.8829 33.4603 29.9255C33.6383 30.0145 33.8163 30.1035 33.9828 30.1887C34.6562 30.5293 35.2484 30.8118 35.7051 31.106C36.6262 31.6555 37.1487 31.9961 37.1487 31.9961Z" fill="white"/>
<path d="M13.0827 17.1843V2.16738L9.80068 3.49491V15.8568L10.1142 15.9845L13.0827 17.1843Z" fill="white"/>
<path d="M15.9739 18.3532V27.673C16.7789 27.6188 17.5878 27.5878 18.4045 27.5839V12.5128L19.2675 12.1645L22.4877 10.8602L22.6347 10.8021L23.9429 10.2719L26.567 9.21142L27.0779 9.00629V3.49492L18.4432 0L14.6386 1.5404V17.8152L15.1108 18.0048L15.9739 18.3532Z" fill="white"/>
<path d="M22.4914 27.762V12.3542L19.7899 13.4456V27.5956C20.6994 27.6188 21.5973 27.6768 22.4914 27.762Z" fill="white"/>
<path d="M34.3543 30.7267H34.3852V13.4456L27.0857 10.4925L27.078 10.4964L23.9392 11.7658V27.9207C27.5734 28.3967 31.0645 29.3566 34.3543 30.7267Z" fill="white"/>
<path d="M6.00776 29.6043V18.717L4.59122 19.2859V30.0919C5.05953 29.9255 5.53171 29.7629 6.00776 29.6043Z" fill="white"/>
<path d="M14.5924 27.7852V19.2898L9.80088 17.3507L9.59188 17.2695L7.38966 18.1635V29.1824C9.7196 28.5051 12.127 28.0329 14.5924 27.7852Z" fill="white"/>
<path d="M56.6649 17.5824V20.3077H62.8188V23.6923H53.1484V8.30769H62.7089V11.6923H56.6649V14.2418H62.1594V17.5824H56.6649Z" fill="white"/>
<path d="M70.1874 24C68.6489 24 67.3522 23.6703 66.2973 23.011C65.2424 22.337 64.4878 21.3993 64.0336 20.1978L67.0665 18.4396C67.6819 19.8608 68.7588 20.5714 70.2973 20.5714C71.6892 20.5714 72.3852 20.1538 72.3852 19.3187C72.3852 18.8498 72.1581 18.4982 71.7039 18.2637C71.235 17.9853 70.3999 17.685 69.1984 17.3626C67.9676 17.0256 66.9273 16.5421 66.0775 15.9121C65.1398 15.1502 64.6709 14.0733 64.6709 12.6813C64.6709 11.2601 65.1764 10.1245 66.1874 9.27473C67.2131 8.42491 68.4292 8 69.8358 8C71.0958 8 72.2094 8.30037 73.1764 8.9011C74.1435 9.48718 74.9054 10.3443 75.4621 11.4725L72.4951 13.2088C71.9383 12.022 71.0519 11.4286 69.8358 11.4286C69.3229 11.4286 68.92 11.5385 68.627 11.7582C68.3339 11.978 68.1874 12.2564 68.1874 12.5934C68.1874 12.9597 68.3632 13.2894 68.7149 13.5824C69.0958 13.8755 69.8431 14.1831 70.9566 14.5055L72.3852 14.967C72.7515 15.0842 73.1764 15.2821 73.6599 15.5604C74.1874 15.8242 74.583 16.1099 74.8468 16.4176C75.55 17.1795 75.9017 18.1319 75.9017 19.2747C75.9017 20.7253 75.3742 21.8828 74.3193 22.7473C73.2643 23.5824 71.887 24 70.1874 24Z" fill="white"/>
<path d="M76.0021 8.30769H87.4307V11.6923H83.4747V23.6923H79.9582V11.6923H76.0021V8.30769Z" fill="white"/>
<path d="M101.502 23.6923H97.6556L96.8864 21.2747H91.1721L90.4029 23.6923H86.5567L91.7875 8.30769H96.271L101.502 23.6923ZM94.0293 12.3297L92.2271 17.978H95.8315L94.0293 12.3297Z" fill="white"/>
<path d="M111.385 16.6593V8.30769H114.902V23.6923H112.264L106.33 15.3407V23.6923H102.814V8.30769H105.451L111.385 16.6593Z" fill="white"/>
<path d="M124.878 24C122.577 24 120.665 23.2381 119.142 21.7143C117.632 20.1905 116.878 18.2857 116.878 16C116.878 13.7143 117.632 11.8168 119.142 10.3077C120.651 8.76923 122.563 8 124.878 8C126.255 8 127.53 8.32234 128.702 8.96703C129.874 9.59707 130.797 10.4615 131.471 11.5604L128.438 13.3187C128.101 12.7179 127.618 12.2564 126.988 11.9341C126.372 11.5971 125.669 11.4286 124.878 11.4286C123.501 11.4286 122.409 11.8462 121.603 12.6813C120.797 13.5018 120.394 14.6081 120.394 16C120.394 17.3919 120.797 18.4982 121.603 19.3187C122.409 20.1538 123.501 20.5714 124.878 20.5714C125.654 20.5714 126.358 20.4029 126.988 20.0659C127.632 19.7289 128.116 19.2674 128.438 18.6813L131.471 20.4396C130.812 21.5385 129.896 22.4103 128.724 23.0549C127.552 23.685 126.27 24 124.878 24Z" fill="white"/>
<path d="M141.303 8.30769H145.303L140.138 17.7802V23.6923H136.622V17.7802L131.457 8.30769H135.457L138.38 14.2418L141.303 8.30769Z" fill="white"/>
</svg>
