<svg width="33" height="36" viewBox="0 0 33 36" fill="none" xmlns="http://www.w3.org/2000/svg">
<path d="M7.5 19.6875C7.5 18.7734 8.20312 18 9.1875 18H23.8125C24.7266 18 25.5 18.7734 25.5 19.6875C25.5 20.6719 24.7266 21.375 23.8125 21.375H9.1875C8.20312 21.375 7.5 20.6719 7.5 19.6875ZM17.0625 24.75C17.9766 24.75 18.75 25.5234 18.75 26.4375C18.75 27.4219 17.9766 28.125 17.0625 28.125H9.1875C8.20312 28.125 7.5 27.4219 7.5 26.4375C7.5 25.5234 8.20312 24.75 9.1875 24.75H17.0625ZM11.4375 4.5H21.5625V1.6875C21.5625 0.773438 22.2656 0 23.25 0C24.1641 0 24.9375 0.773438 24.9375 1.6875V4.5H27.75C30.2109 4.5 32.25 6.53906 32.25 9V31.5C32.25 34.0312 30.2109 36 27.75 36H5.25C2.71875 36 0.75 34.0312 0.75 31.5V9C0.75 6.53906 2.71875 4.5 5.25 4.5H8.0625V1.6875C8.0625 0.773438 8.76562 0 9.75 0C10.6641 0 11.4375 0.773438 11.4375 1.6875V4.5ZM4.125 31.5C4.125 32.1328 4.61719 32.625 5.25 32.625H27.75C28.3125 32.625 28.875 32.1328 28.875 31.5V13.5H4.125V31.5Z" fill="#212121"/>
</svg>
