<svg width="24" height="24" viewBox="0 0 24 24" fill="none" xmlns="http://www.w3.org/2000/svg">
<path d="M12.0287 4.125C7.03653 4.125 3.02872 7.42969 3.02872 11.4375C3.02872 13.125 3.69668 14.6719 4.85684 15.9023C4.36465 17.2734 3.27481 18.4688 3.23965 18.4688C2.99356 18.7148 2.9584 19.0664 3.06387 19.3828C3.2045 19.6992 3.5209 19.875 3.87247 19.875C6.017 19.875 7.7045 18.9961 8.75918 18.2578C9.74356 18.5742 10.8686 18.75 12.0287 18.75C16.9857 18.75 20.9936 15.4805 20.9936 11.4375C20.9936 7.42969 16.9857 4.125 12.0287 4.125ZM12.0287 17.0625C11.0795 17.0625 10.1303 16.9219 9.25137 16.6406L8.44278 16.3945L7.77481 16.8867C7.28262 17.2383 6.5795 17.625 5.73575 17.9062C6.017 17.4844 6.26309 16.9922 6.43887 16.5L6.82559 15.5156L6.08731 14.7422C5.4545 14.0742 4.71622 12.9492 4.71622 11.4375C4.71622 8.34375 7.98575 5.8125 12.0287 5.8125C16.0365 5.8125 19.3412 8.34375 19.3412 11.4375C19.3412 14.5664 16.0365 17.0625 12.0287 17.0625Z" fill="#808080"/>
</svg>
