<svg width="18" height="16" viewBox="0 0 18 16" fill="none" xmlns="http://www.w3.org/2000/svg">
<path d="M8.57812 1.7619L8.96484 2.18377L9.38672 1.79705C10.5469 0.636897 12.1992 0.109553 13.7812 0.390803C16.207 0.777522 18 2.8869 18 5.34783V5.52362C18 7.00018 17.3672 8.40643 16.3125 9.3908L9.94922 15.3322C9.70312 15.5783 9.35156 15.6838 9 15.6838C8.61328 15.6838 8.26172 15.5783 8.01562 15.3322L1.65234 9.3908C0.597656 8.40643 0 7.00018 0 5.52362V5.34783C0 2.8869 1.75781 0.777522 4.18359 0.390803C5.76562 0.109553 7.41797 0.636897 8.57812 1.7619C8.54297 1.7619 8.57812 1.79705 8.57812 1.7619ZM8.96484 4.5744L7.38281 2.95721C6.60938 2.21893 5.51953 1.86737 4.46484 2.04315C2.84766 2.3244 1.6875 3.69549 1.6875 5.34783V5.52362C1.6875 6.54315 2.07422 7.49237 2.8125 8.16033L9 13.926L15.1523 8.16033C15.8906 7.49237 16.3125 6.54315 16.3125 5.52362V5.34783C16.3125 3.69549 15.1172 2.3244 13.5 2.04315C12.4453 1.86737 11.3555 2.21893 10.582 2.95721L8.96484 4.5744Z" fill="white"/>
</svg>
