<svg width="46" height="36" viewBox="0 0 46 36" fill="none" xmlns="http://www.w3.org/2000/svg">
<path d="M24.125 4.5V11.8828L20.75 8.78906V4.5C20.75 2.03906 22.7188 0 25.25 0H41C43.4609 0 45.5 2.03906 45.5 4.5V31.5C45.5 34.0312 43.4609 36 41 36H28.625C29.3281 35.0859 29.75 33.8906 29.75 32.625H41C41.5625 32.625 42.125 32.1328 42.125 31.5V4.5C42.125 3.9375 41.5625 3.375 41 3.375H25.25C24.6172 3.375 24.125 3.9375 24.125 4.5ZM29.5391 18C29.2578 17.0156 28.6953 16.1016 27.9219 15.3984L27.5 14.9766V14.625C27.5 14.0625 27.9922 13.5 28.625 13.5H30.875C31.4375 13.5 32 14.0625 32 14.625V16.875C32 17.5078 31.4375 18 30.875 18H29.5391ZM29.75 24.75V20.25H30.875C31.4375 20.25 32 20.8125 32 21.375V23.625C32 24.2578 31.4375 24.75 30.875 24.75H29.75ZM34.25 14.625C34.25 14.0625 34.7422 13.5 35.375 13.5H37.625C38.1875 13.5 38.75 14.0625 38.75 14.625V16.875C38.75 17.5078 38.1875 18 37.625 18H35.375C34.7422 18 34.25 17.5078 34.25 16.875V14.625ZM37.625 20.25C38.1875 20.25 38.75 20.8125 38.75 21.375V23.625C38.75 24.2578 38.1875 24.75 37.625 24.75H35.375C34.7422 24.75 34.25 24.2578 34.25 23.625V21.375C34.25 20.8125 34.7422 20.25 35.375 20.25H37.625ZM30.875 6.75C31.4375 6.75 32 7.3125 32 7.875V10.125C32 10.7578 31.4375 11.25 30.875 11.25H28.625C27.9922 11.25 27.5 10.7578 27.5 10.125V7.875C27.5 7.3125 27.9922 6.75 28.625 6.75H30.875ZM34.25 7.875C34.25 7.3125 34.7422 6.75 35.375 6.75H37.625C38.1875 6.75 38.75 7.3125 38.75 7.875V10.125C38.75 10.7578 38.1875 11.25 37.625 11.25H35.375C34.7422 11.25 34.25 10.7578 34.25 10.125V7.875ZM10.625 20.8125C10.625 19.8984 11.3281 19.125 12.3125 19.125H15.6875C16.6016 19.125 17.375 19.8984 17.375 20.8125V24.1875C17.375 25.1719 16.6016 25.875 15.6875 25.875H12.3125C11.3281 25.875 10.625 25.1719 10.625 24.1875V20.8125ZM10.9062 8.4375C12.6641 6.89062 15.2656 6.89062 17.0234 8.4375L26.0234 16.6641C26.9375 17.5781 27.5 18.7734 27.5 20.0391V31.5C27.5 34.0312 25.4609 36 23 36H5C2.46875 36 0.5 34.0312 0.5 31.5V20.0391C0.5 18.7734 0.992188 17.5781 1.90625 16.6641L10.9062 8.4375ZM3.875 20.0391V31.5C3.875 32.1328 4.36719 32.625 5 32.625H23C23.5625 32.625 24.125 32.1328 24.125 31.5V20.0391C24.125 19.6875 23.9844 19.4062 23.7031 19.1953L14.7031 10.8984C14.2812 10.5469 13.6484 10.5469 13.2266 10.8984L4.22656 19.1953C3.94531 19.4062 3.875 19.6875 3.875 20.0391Z" fill="#212121"/>
</svg>
