<svg width="31" height="32" viewBox="0 0 31 32" fill="none" xmlns="http://www.w3.org/2000/svg">
<path d="M5.625 8.48535C5.625 7.29004 6.60938 6.23535 7.875 6.23535C9.07031 6.23535 10.125 7.29004 10.125 8.48535C10.125 9.75098 9.07031 10.7354 7.875 10.7354C6.60938 10.7354 5.625 9.75098 5.625 8.48535ZM13.8516 0.610352C15.0469 0.610352 16.1719 1.10254 17.0156 1.94629L29.3906 14.3213C31.1484 16.0791 31.1484 18.9619 29.3906 20.7197L20.0391 30.0713C18.2812 31.8291 15.3984 31.8291 13.6406 30.0713L1.26562 17.6963C0.421875 16.8525 0 15.7275 0 14.5322V3.98535C0 2.15723 1.47656 0.610352 3.375 0.610352H13.8516ZM3.65625 15.3057L16.0312 27.6807C16.4531 28.1729 17.2266 28.1729 17.6484 27.6807L27 18.3291C27.4922 17.9072 27.4922 17.1338 27 16.7119L14.625 4.33691C14.4141 4.12598 14.1328 3.98535 13.8516 3.98535H3.375V14.5322C3.375 14.8135 3.44531 15.0947 3.65625 15.3057Z" fill="#212121"/>
</svg>
