<svg width="28" height="36" viewBox="0 0 28 36" fill="none" xmlns="http://www.w3.org/2000/svg">
<path d="M19.625 13.5264C19.625 16.6904 17.0938 19.1514 14 19.1514C10.8359 19.1514 8.375 16.6904 8.375 13.5264C8.375 10.4326 10.8359 7.90137 14 7.90137C17.0938 7.90137 19.625 10.4326 19.625 13.5264ZM14 11.2764C12.7344 11.2764 11.75 12.3311 11.75 13.5264C11.75 14.792 12.7344 15.7764 14 15.7764C15.1953 15.7764 16.25 14.792 16.25 13.5264C16.25 12.3311 15.1953 11.2764 14 11.2764ZM27.5 13.5264C27.5 19.7139 19.2734 30.6123 15.6172 35.1826C14.7734 36.2373 13.1562 36.2373 12.3125 35.1826C8.65625 30.6123 0.5 19.7139 0.5 13.5264C0.5 6.07324 6.47656 0.0263672 14 0.0263672C21.4531 0.0263672 27.5 6.07324 27.5 13.5264ZM14 3.40137C8.375 3.40137 3.875 7.97168 3.875 13.5264C3.875 14.4404 4.15625 15.7764 4.92969 17.6045C5.63281 19.292 6.6875 21.2607 7.88281 23.2295C9.92188 26.4639 12.2422 29.5576 14 31.8076C15.6875 29.5576 18.0078 26.4639 20.0469 23.2295C21.2422 21.2607 22.2969 19.292 23 17.6045C23.7734 15.7764 24.125 14.4404 24.125 13.5264C24.125 7.97168 19.5547 3.40137 14 3.40137Z" fill="#212121"/>
</svg>
