<svg width="30" height="30" viewBox="0 0 30 30" fill="none" xmlns="http://www.w3.org/2000/svg">
<path d="M29.5459 27.5977L21.6943 19.7461C23.3936 17.6953 24.3311 15.0586 24.3311 12.1875C24.3311 5.50781 18.8232 0 12.1436 0C5.40527 0 0.0146484 5.50781 0.0146484 12.1875C0.0146484 18.9258 5.46387 24.375 12.1436 24.375C14.9561 24.375 17.5928 23.4375 19.7021 21.7383L27.5537 29.5898C27.8467 29.8828 28.1982 30 28.6084 30C28.96 30 29.3115 29.8828 29.5459 29.5898C30.1318 29.0625 30.1318 28.1836 29.5459 27.5977ZM2.82715 12.1875C2.82715 7.03125 6.9873 2.8125 12.2021 2.8125C17.3584 2.8125 21.5771 7.03125 21.5771 12.1875C21.5771 17.4023 17.3584 21.5625 12.2021 21.5625C6.9873 21.5625 2.82715 17.4023 2.82715 12.1875Z" fill="white"/>
</svg>
